<?xml version="1.0" encoding="UTF-8" standalone="no"?>
<!-- Created with Inkscape (http://www.inkscape.org/) -->

<svg
   xmlns:dc="http://purl.org/dc/elements/1.1/"
   xmlns:cc="http://creativecommons.org/ns#"
   xmlns:rdf="http://www.w3.org/1999/02/22-rdf-syntax-ns#"
   xmlns:svg="http://www.w3.org/2000/svg"
   xmlns="http://www.w3.org/2000/svg"
   xmlns:xlink="http://www.w3.org/1999/xlink"
   xmlns:sodipodi="http://sodipodi.sourceforge.net/DTD/sodipodi-0.dtd"
   xmlns:inkscape="http://www.inkscape.org/namespaces/inkscape"
   width="819.72528"
   height="292.95724"
   id="svg2217"
   sodipodi:version="0.32"
   inkscape:version="0.48.3.1 r9886"
   version="1.0"
   sodipodi:docname="SPLGroupNew.svg"
   inkscape:output_extension="org.inkscape.output.svg.inkscape">
  <defs
     id="defs2219">
    <filter
       inkscape:collect="always"
       id="filter9035"
       color-interpolation-filters="sRGB">
      <feGaussianBlur
         inkscape:collect="always"
         stdDeviation="1.5740631"
         id="feGaussianBlur9037" />
    </filter>
    <filter
       inkscape:collect="always"
       id="filter7087"
       color-interpolation-filters="sRGB">
      <feGaussianBlur
         inkscape:collect="always"
         stdDeviation="1.3511365"
         id="feGaussianBlur7089" />
    </filter>
    <filter
       inkscape:collect="always"
       id="filter6112"
       color-interpolation-filters="sRGB">
      <feGaussianBlur
         inkscape:collect="always"
         stdDeviation="1.524629"
         id="feGaussianBlur6114" />
    </filter>
    <filter
       inkscape:collect="always"
       id="filter5137"
       color-interpolation-filters="sRGB">
      <feGaussianBlur
         inkscape:collect="always"
         stdDeviation="1.6558412"
         id="feGaussianBlur5139" />
    </filter>
    <linearGradient
       inkscape:collect="always"
       xlink:href="#linearGradient13960"
       id="linearGradient19828"
       gradientUnits="userSpaceOnUse"
       gradientTransform="translate(160,0)"
       x1="690.66388"
       y1="-485.99149"
       x2="651.95868"
       y2="-409.99149" />
    <linearGradient
       inkscape:collect="always"
       xlink:href="#linearGradient13960"
       id="linearGradient19826"
       gradientUnits="userSpaceOnUse"
       gradientTransform="translate(160,0)"
       x1="675.03436"
       y1="-527.73743"
       x2="609.91394"
       y2="-480.06" />
    <linearGradient
       inkscape:collect="always"
       xlink:href="#linearGradient13960"
       id="linearGradient19824"
       gradientUnits="userSpaceOnUse"
       gradientTransform="translate(160,0)"
       x1="759.49585"
       y1="-504.81134"
       x2="729.94598"
       y2="-455.77994" />
    <linearGradient
       id="linearGradient13960">
      <stop
         style="stop-color:#ffffff;stop-opacity:0.57462686;"
         offset="0"
         id="stop13962" />
      <stop
         style="stop-color:#ffffff;stop-opacity:0;"
         offset="1"
         id="stop13964" />
    </linearGradient>
    <linearGradient
       inkscape:collect="always"
       xlink:href="#linearGradient13960"
       id="linearGradient19822"
       gradientUnits="userSpaceOnUse"
       gradientTransform="translate(160,0)"
       x1="717.48889"
       y1="-548.40814"
       x2="702.01611"
       y2="-492.77609" />
  </defs>
  <sodipodi:namedview
     id="base"
     pagecolor="#ffffff"
     bordercolor="#666666"
     borderopacity="1.0"
     inkscape:pageopacity="0.0"
     inkscape:pageshadow="2"
     inkscape:zoom="0.35"
     inkscape:cx="1056.9813"
     inkscape:cy="226.0911"
     inkscape:document-units="px"
     inkscape:current-layer="layer1"
     inkscape:window-width="910"
     inkscape:window-height="623"
     inkscape:window-x="4"
     inkscape:window-y="187"
     showgrid="false"
     inkscape:window-maximized="0"
     fit-margin-top="0"
     fit-margin-left="0"
     fit-margin-right="0"
     fit-margin-bottom="0" />
  <metadata
     id="metadata2222">
    <rdf:RDF>
      <cc:Work
         rdf:about="">
        <dc:format>image/svg+xml</dc:format>
        <dc:type
           rdf:resource="http://purl.org/dc/dcmitype/StillImage" />
        <dc:title></dc:title>
        <dc:creator>
          <cc:Agent>
            <dc:title>Benjamin Pavie</dc:title>
          </cc:Agent>
        </dc:creator>
        <cc:license
           rdf:resource="http://web.resource.org/cc/PublicDomain" />
        <dc:subject>
          <rdf:Bag>
            <rdf:li>puzzle</rdf:li>
          </rdf:Bag>
        </dc:subject>
      </cc:Work>
      <cc:License
         rdf:about="http://web.resource.org/cc/PublicDomain">
        <cc:permits
           rdf:resource="http://web.resource.org/cc/Reproduction" />
        <cc:permits
           rdf:resource="http://web.resource.org/cc/Distribution" />
        <cc:permits
           rdf:resource="http://web.resource.org/cc/DerivativeWorks" />
      </cc:License>
    </rdf:RDF>
  </metadata>
  <g
     inkscape:label="Calque 1"
     inkscape:groupmode="layer"
     id="layer1"
     transform="translate(499.55897,75.500658)">
    <path
       style="fill:#4d4d4d;fill-opacity:1;fill-rule:evenodd;stroke:none;filter:url(#filter9035)"
       d="m 26.782141,171.94247 22.5,-8.39285 c -4.76081,-5.99003 -12.46374,-12.92254 -2.43304,-17.43304 9.67156,-4.34901 8.29799,10.0837 17.61161,10.64732 9.31362,0.56362 18.71817,-6.31231 19.64286,-8.39286 0.89286,-2.00893 -8.92857,-11.07143 -8.92857,-11.07143 -0.29762,-3.03571 0.83333,-3.92857 3.92857,-4.10714 l 7.32142,2.14285 c 2.85714,-10.2381 0,-14.22619 -11.25,-15.17857 -2.02381,4.28572 -5.29762,9.28572 -10.17857,8.92858 0,0 -12.40526,-16.2162 -14.46428,-16.78572 -2.09821,-0.58036 -22.85714,6.42857 -22.85714,6.42857 3.24404,3.15476 1.83529,10.23055 -3.66072,12.85715 -5.42848,2.59433 -13.62173,-3.27576 -14.0178498,-7.85714 -2.55342,-0.11777 -12.50001,6.24999 -12.50001,6.24999 l 7.5,11.60715 c -2.97619,3.86904 -11.49691,0.28166 -14.64286,5 -3.1065402,4.65922 6.13298,10.94399 10.89286,10.35714 5.50248,-0.6784 8.8095198,-0.35714 11.2499998,-5.17857 l 14.28572,20.17857 z"
       id="path11996"
       sodipodi:nodetypes="ccsszccccczczcccsscc"
       transform="matrix(2.0116073,0,0,2.0116073,136.63609,-207.11193)"
       inkscape:connector-curvature="0" />
    <path
       style="fill:#4d4d4d;fill-opacity:1;fill-rule:evenodd;stroke:none;filter:url(#filter7087)"
       d="m -9.5035788,77.442466 c 6.3988,-1.45834 13.95833,-3.3631 19.9999998,-5.71429 4.16667,4.40476 7.79762,7.38095 9.10714,12.32143 -5.23809,1.01191 -12.8501498,1.83646 -9.8214198,6.96429 0.6176998,1.04581 9.2287798,6.90919 16.7857098,-2.5 2.22165,2.46313 14.28572,14.285714 13.75,15.535714 -0.56822,1.32582 -12.63393,3.43749 -20.26786,5.71428 4.41964,1.91965 5.00001,10.7143 0.08929,13.75001 -4.83257,2.98741 -13.9285698,-3.12501 -13.7500098,-8.39286 -6.54500002,1.68089 -15.17856,5.53571 -15.17856,5.53571 -3.4307202,-2.09734 -8.7006602,-5.51087 -10.2958702,-11.19397 3.96062,0.25154 13.7583802,-3.43708 11.3226502,-8.85067 -2.4282702,-5.397014 -12.2214102,-2.262114 -15.2691702,1.26401 -7.84598,-3.292414 -16.11744,-12.768994 -16.11476,-14.433654 0.0027,-1.53839 13.96686,-4.96154 20.13394,-7.32143 -3.88008,-0.17254 -9.62054,-8.48958 -2.27679,-10.89286 7.34375,-2.40328 13.0357102,3.42262 11.7857102,8.21429 z"
       id="path11998"
       sodipodi:nodetypes="cccsczczccczczczc"
       transform="matrix(2.0116073,0,0,2.0116073,136.63609,-207.11193)"
       inkscape:connector-curvature="0" />
    <path
       style="fill:#4d4d4d;fill-opacity:1;fill-rule:evenodd;stroke:none;filter:url(#filter6112)"
       d="m -43.076669,115.15068 c 0.95327,3.36834 4.37326,6.38219 7.7346,10.40356 -7.18268,3.91413 -7.63349,4.00954 -11.81635,6.83429 1.00839,-6.50078 -6.97791,-12.04729 -13.53029,-9.06381 -3.77692,1.71973 -9.68711,3.92548 -5.83376,12.7451 -2.46313,2.22165 -23.62961,10.75019 -24.87961,10.21447 -1.32582,-0.56822 -8.740791,-12.88647 -11.017581,-20.5204 -3.43488,4.1671 -12.13243,15.58881 -18.80078,3.62483 -6.77547,-12.15618 7.41816,-13.4235 12.68601,-13.24494 -1.68089,-6.545 -2.75779,-9.11764 -2.75779,-9.11764 2.09494,-3.43252 18.732971,-8.191134 27.103871,-7.770494 -1.00915,5.980934 1.96014,12.054454 10.87098,9.302354 8.68,-2.68081 5.29257,-9.696034 0.7563,-12.238724 4.80764,-5.3206 17.27833,-7.73911 19.23186,-6.77085 2.04347,1.01283 5.71916,10.683874 9.34174,16.598414 3.70807,-3.88008 11.51534,-9.908514 15.69109,1.25874 4.1456,11.08661 -9.48354,9.24763 -14.78029,7.7451 z"
       id="path12000"
       sodipodi:nodetypes="cccsczczccczczczc"
       transform="matrix(2.0116073,0,0,2.0116073,136.63609,-207.11193)"
       inkscape:connector-curvature="0" />
    <path
       id="path12002"
       d="m -19.694049,206.41866 c -0.36667,-0.36667 -0.66667,-2.32192 -0.66667,-4.34501 0,-4.30305 -2.41374,-6.98833 -6.28167,-6.98833 -1.44331,0 -8.06656,2.025 -14.71833,4.5 -6.65177,2.475 -12.91026,4.5 -13.90774,4.5 -2.61059,0 -8.31483,-11.00993 -7.90504,-15.25776 0.31069,-3.22061 0.35502,-3.2456 6.64621,-3.7461 7.7984,-0.6204 9.94103,-2.59782 7.63881,-7.04982 -1.85496,-3.58709 -6.58551,-6.94632 -9.782,-6.94632 -1.39369,0 -4.3558,1.54963 -6.69024,3.5 -2.30407,1.925 -4.57912,3.5 -5.05566,3.5 -1.58837,0 -4.40506,-3.80791 -8.44434,-11.41597 -3.1578,-5.94779 -3.77452,-7.8951 -2.92908,-9.24872 0.58902,-0.94305 5.85763,-3.31678 11.70803,-5.27497 12.95582,-4.33643 14.19694,-5.31172 9.88399,-7.76696 -2.63483,-1.49993 -3.15133,-2.39509 -3.15662,-5.4708 -0.0083,-4.84923 3.57543,-7.82258 9.42854,-7.82258 4.96974,0 6.56514,1.33656 6.56514,5.5 0,6.23421 3.10065,6.81041 15.80148,2.93642 4.62257,-1.40997 8.53348,-2.42247 8.6909,-2.25 0.74502,0.81627 7.17914,9.45023 7.80484,10.47334 1.67443,2.73793 -0.43565,4.34024 -5.71565,4.34024 -3.85824,0 -5.77152,0.52831 -7.39674,2.04244 -2.0294,1.89067 -2.08407,2.25173 -0.73572,4.85915 3.04988,5.89783 13.57581,7.36484 18.56269,2.58711 l 2.8853702,-2.76436 2.80141,3.32923 c 6.59955,7.84296 12.38204,16.28401 12.10272,17.66707 -0.16643,0.82409 -4.18281,3.04383 -8.97238,4.95879 -4.76909,1.90677 -8.9248202,4.12811 -9.2349602,4.93631 -0.36719,0.95689 0.67974,2.20322 3.0014002,3.57303 3.72566,2.19819 5.82461,5.91266 4.93139,8.72695 -0.88101,2.77581 -5.99549,5.08428 -11.2643702,5.08428 -2.71098,0 -5.22905,-0.3 -5.59571,-0.66666 z"
       style="fill:#4d4d4d;fill-opacity:1;filter:url(#filter5137)"
       transform="matrix(2.0116073,0,0,2.0116073,136.63609,-207.11193)"
       inkscape:connector-curvature="0" />
    <path
       style="fill:#d4aa00;fill-opacity:1;fill-rule:evenodd;stroke:none"
       d="m 194.53445,134.74559 45.26117,-16.88312 c -9.57688,-12.04959 -25.07215,-25.995077 -4.89432,-35.068432 19.45538,-8.7485 16.69229,20.284442 35.42764,21.418222 18.73535,1.13379 37.65361,-12.697884 39.51372,-16.883134 1.79608,-4.041178 -17.96078,-22.271369 -17.96078,-22.271369 -0.59869,-6.106657 1.67634,-7.90274 7.90274,-8.261953 l 14.72783,4.310572 c 5.74744,-20.595036 0,-28.617507 -22.63059,-30.533322 -4.07111,8.621186 -10.65673,18.679222 -20.47528,17.960797 0,0 -24.95451,-32.620626 -29.09645,-33.766277 -4.22078,-1.167456 -45.97959,12.931758 -45.97959,12.931758 6.52573,6.346139 3.69188,20.579849 -7.36393,25.863537 -10.91997,5.218773 -27.40158,-6.589542 -28.19841,-15.80548 -5.13648,-0.236907 -25.14511,12.572526 -25.14511,12.572526 l 15.08705,23.349027 c -5.98693,7.782989 -23.12727,0.56659 -29.45568,10.058037 -6.24914,9.372521 12.33714,22.015011 21.91215,20.834501 11.06883,-1.36468 17.7213,-0.71843 22.63058,-10.417252 l 28.73726,40.591362 z"
       id="path12004"
       sodipodi:nodetypes="ccsszccccczczcccsscc"
       inkscape:connector-curvature="0" />
    <path
       id="path12006"
       d="m 101.04261,204.09814 c -0.7376,-0.73759 -1.341078,-4.67079 -1.341078,-8.74045 0,-8.65605 -4.855497,-14.05778 -12.636253,-14.05778 -2.903373,0 -16.226751,4.07351 -29.6075,9.05224 -13.380749,4.97872 -25.970374,9.05223 -27.976912,9.05223 -5.251482,0 -16.726172,-22.14766 -15.901836,-30.69262 0.624986,-6.47861 0.714161,-6.52888 13.369565,-7.53569 15.687318,-1.248 19.997448,-5.22579 15.366286,-14.18146 -3.731451,-7.21582 -13.24746,-13.97327 -19.677543,-13.97327 -2.803557,0 -8.762159,3.11724 -13.4581356,7.04062 -4.634884,3.87235 -9.2113912,7.04063 -10.1700025,7.04063 -3.1951769,0 -8.8612509,-7.66002 -16.9866959,-22.96445 -6.352254,-11.96462 -7.592852,-15.88184 -5.892159,-18.60479 1.184877,-1.89705 11.783251,-6.672062 23.5519588,-10.611171 C 25.744327,86.198985 28.240973,84.237084 19.565011,79.298106 c -5.300243,-3.01727 -6.339238,-4.817981 -6.34988,-11.005102 -0.01678,-9.754746 7.192361,-15.735959 18.96652,-15.735959 9.997166,0 13.206484,2.688634 13.206484,11.063841 0,12.540782 6.23729,13.69987 31.786372,5.906924 9.298796,-2.836306 17.166011,-4.873059 17.482678,-4.526117 1.498688,1.642015 14.441615,19.010152 15.700275,21.068247 3.36829,5.50764 -0.87636,8.730859 -11.497645,8.730859 -7.761264,0 -11.610032,1.062752 -14.879336,4.108587 -4.082356,3.803284 -4.192331,4.529594 -1.47998,9.774704 6.135161,11.86412 27.309201,14.81516 37.340841,5.20425 l 5.80423,-5.56081 5.63534,6.6971 c 13.2757,15.77696 24.9078,32.75704 24.34592,35.53921 -0.33479,1.65775 -8.41417,6.12299 -18.0489,9.97514 -9.59354,3.83567 -17.95324,8.30413 -18.57712,9.92992 -0.73864,1.92488 1.36737,4.43201 6.03764,7.18753 7.49457,4.42189 11.71683,11.89395 9.92002,17.5552 -1.77225,5.58384 -12.06057,10.22757 -22.65949,10.22757 -5.45343,0 -10.51879,-0.60348 -11.25637,-1.34106 z"
       style="fill:#d4aa00"
       inkscape:connector-curvature="0" />
    <path
       style="fill:#d4aa00;fill-opacity:1;fill-rule:evenodd;stroke:none"
       d="m 121.54183,-55.351311 c 12.87188,-2.933608 28.07868,-6.765237 40.23215,-11.494908 8.3817,8.860648 15.68575,14.847573 18.31999,24.785879 -10.53698,2.035565 -25.84946,3.694236 -19.75684,14.009416 1.24257,2.103759 18.56468,13.898577 33.76626,-5.029018 4.46908,4.95485 28.73725,28.737247 27.6596,31.2517559 -1.14304,2.6670292 -25.41451,6.9148799 -40.77098,11.4948873 8.89058,3.8615818 10.05806,21.5529638 0.17962,27.6596208 -9.72124,6.009495 -28.01882,-6.286293 -27.65962,-16.883139 -13.16597,3.381291 -30.5333,11.135675 -30.5333,11.135675 -6.90127,-4.219025 -17.50232,-11.085706 -20.71125,-22.5178718 7.96721,0.5059997 27.67646,-6.9140553 22.77672,-17.8040802 -4.88472,-10.856665 -24.58467,-4.550477 -30.715571,2.542691 -15.78303,-6.623036 -32.42196,-25.686193 -32.416569,-29.034835 0.0054,-3.094637 28.095838,-9.98067 40.50158,-14.727842 -7.805196,-0.347083 -19.352747,-17.077701 -4.580006,-21.912157 14.772736,-4.834456 26.222726,6.884967 23.708216,16.523926 z"
       id="path12008"
       sodipodi:nodetypes="cccsczczccczczczc"
       inkscape:connector-curvature="0" />
    <path
       style="fill:#d4aa00;fill-opacity:1;fill-rule:evenodd;stroke:none"
       d="m 54.005961,20.502807 c 1.917605,6.775778 8.797282,12.83846 15.558978,20.927878 C 55.116207,49.304377 45.910851,57.331676 45.795083,55.178592 45.209645,44.290989 31.758268,30.944176 18.577453,36.945766 10.979773,40.405187 -0.9092083,44.84229 6.8422186,62.583902 1.8873684,67.052989 -40.691277,84.209063 -43.205786,83.131404 -45.872816,81.988369 -60.788823,57.208887 -65.368833,41.852418 -72.278462,50.234987 -89.774518,73.210982 -103.18862,49.144153 -116.8182,24.690692 -88.266194,22.141342 -77.669349,22.500535 -81.050639,9.3345648 -83.216939,4.1594233 -83.216939,4.1594233 -79.002743,-2.745459 -45.533558,-12.317922 -28.694595,-11.471759 -30.724608,0.5595314 -24.751563,12.777069 -6.826452,7.2409241 10.6343,1.8481871 3.8201207,-12.263689 -5.305073,-17.378582 4.3660105,-28.08154 29.452142,-32.946633 33.381877,-30.998874 37.492536,-28.961457 44.886581,-9.507123 52.173789,2.390617 59.63297,-5.41458 75.338131,-17.541422 83.7381,4.9227076 92.07742,27.224613 64.660942,23.525308 54.005961,20.502807 z"
       id="path19814"
       sodipodi:nodetypes="ccssczczccczczczc"
       inkscape:connector-curvature="0" />
    <g
       id="g19816"
       transform="matrix(2.0116073,0,0,2.0116073,-1607.7456,1030.1811)"
       inkscape:export-filename="/tmp/puzzle.png"
       inkscape:export-xdpi="76.519997"
       inkscape:export-ydpi="76.519997">
      <path
         sodipodi:nodetypes="cccsczczccczczczc"
         id="path12989"
         d="m 859.65456,-539.63433 c 6.3988,-1.45834 13.95833,-3.3631 20,-5.71429 4.16667,4.40476 7.79762,7.38095 9.10714,12.32143 -5.23809,1.01191 -12.85015,1.83646 -9.82142,6.96429 0.6177,1.04581 9.22878,6.90919 16.78571,-2.5 2.22165,2.46313 14.28572,14.28571 13.75,15.53571 -0.56822,1.32582 -12.63393,3.43749 -20.26786,5.71428 4.41964,1.91965 5.00001,10.7143 0.0893,13.75001 -4.83257,2.98741 -13.92857,-3.12501 -13.75001,-8.39286 -6.545,1.68089 -15.17856,5.53571 -15.17856,5.53571 -3.43072,-2.09734 -8.70066,-5.51087 -10.29587,-11.19397 3.96062,0.25154 13.75838,-3.43708 11.32265,-8.85067 -2.42827,-5.39701 -12.22141,-2.26211 -15.26917,1.26401 -7.84598,-3.29241 -16.11744,-12.76899 -16.11476,-14.43365 0.003,-1.53839 13.96686,-4.96154 20.13394,-7.32143 -3.88008,-0.17254 -9.62054,-8.48958 -2.27679,-10.89286 7.34375,-2.40328 13.03571,3.42262 11.78571,8.21429 z"
         style="fill:url(#linearGradient19822);fill-opacity:1;fill-rule:evenodd;stroke:none"
         inkscape:connector-curvature="0" />
      <path
         sodipodi:nodetypes="ccsszccccczczcccsscc"
         id="path13970"
         d="m 895.94028,-445.13433 22.5,-8.39285 c -4.76081,-5.99003 -12.46374,-12.92254 -2.43304,-17.43304 9.67156,-4.34901 8.29799,10.0837 17.61161,10.64732 9.31362,0.56362 18.71817,-6.31231 19.64286,-8.39286 0.89286,-2.00893 -8.92857,-11.07143 -8.92857,-11.07143 -0.29762,-3.03571 0.83333,-3.92857 3.92857,-4.10714 l 7.32142,2.14285 c 2.85714,-10.2381 0,-14.22619 -11.25,-15.17857 -2.02381,4.28572 -5.29762,9.28572 -10.17857,8.92858 0,0 -12.40526,-16.2162 -14.46428,-16.78572 -2.09821,-0.58036 -22.85714,6.42857 -22.85714,6.42857 3.24404,3.15476 1.83529,10.23055 -3.66072,12.85715 -5.42848,2.59433 -13.62173,-3.27576 -14.01785,-7.85714 -2.55342,-0.11777 -12.50001,6.24999 -12.50001,6.24999 l 7.5,11.60715 c -2.97619,3.86904 -11.49691,0.28166 -14.64286,5 -3.10654,4.65922 6.13298,10.94399 10.89286,10.35714 5.50248,-0.6784 8.80952,-0.35714 11.25,-5.17857 l 14.28572,20.17857 z"
         style="fill:url(#linearGradient19824);fill-opacity:1;fill-rule:evenodd;stroke:none"
         inkscape:connector-curvature="0" />
      <path
         sodipodi:nodetypes="ccssczczccczczczc"
         id="path17856"
         d="m 826.08147,-501.92612 c 0.95327,3.36834 4.37326,6.38219 7.7346,10.40356 -7.18268,3.91413 -11.7588,7.90462 -11.81635,6.83429 -0.29103,-5.41239 -6.97791,-12.04729 -13.53029,-9.06381 -3.77692,1.71973 -9.68711,3.92548 -5.83376,12.7451 -2.46313,2.22165 -23.62961,10.75019 -24.87961,10.21447 -1.32582,-0.56822 -8.74079,-12.88647 -11.01758,-20.5204 -3.43488,4.1671 -12.13243,15.58881 -18.80078,3.62483 -6.77547,-12.15618 7.41816,-13.4235 12.68601,-13.24494 -1.68089,-6.545 -2.75779,-9.11764 -2.75779,-9.11764 2.09494,-3.43252 18.73297,-8.19113 27.10387,-7.77049 -1.00915,5.98093 1.96014,12.05445 10.87098,9.30235 8.68,-2.68081 5.29257,-9.69603 0.7563,-12.23872 4.80764,-5.3206 17.27833,-7.73911 19.23186,-6.77085 2.04347,1.01283 5.71916,10.68387 9.34174,16.59841 3.70807,-3.88008 11.51534,-9.90851 15.69109,1.25874 4.1456,11.08661 -9.48354,9.24763 -14.78029,7.7451 z"
         style="fill:url(#linearGradient19826);fill-opacity:1;fill-rule:evenodd;stroke:none"
         inkscape:connector-curvature="0" />
      <path
         style="fill:url(#linearGradient19828);fill-opacity:1"
         d="m 849.46409,-410.65814 c -0.36667,-0.36667 -0.66667,-2.32192 -0.66667,-4.34501 0,-4.30305 -2.41374,-6.98833 -6.28167,-6.98833 -1.44331,0 -8.06656,2.025 -14.71833,4.5 -6.65177,2.475 -12.91026,4.5 -13.90774,4.5 -2.61059,0 -8.31483,-11.00993 -7.90504,-15.25776 0.31069,-3.22061 0.35502,-3.2456 6.64621,-3.7461 7.7984,-0.6204 9.94103,-2.59782 7.63881,-7.04982 -1.85496,-3.58709 -6.58551,-6.94632 -9.782,-6.94632 -1.39369,0 -4.3558,1.54963 -6.69024,3.5 -2.30407,1.925 -4.57912,3.5 -5.05566,3.5 -1.58837,0 -4.40506,-3.80791 -8.44434,-11.41597 -3.1578,-5.94779 -3.77452,-7.8951 -2.92908,-9.24872 0.58902,-0.94305 5.85763,-3.31678 11.70803,-5.27497 12.95582,-4.33643 14.19694,-5.31172 9.88399,-7.76696 -2.63483,-1.49993 -3.15133,-2.39509 -3.15662,-5.4708 -0.008,-4.84923 3.57543,-7.82258 9.42854,-7.82258 4.96974,0 6.56514,1.33656 6.56514,5.5 0,6.23421 3.10065,6.81041 15.80148,2.93642 4.62257,-1.40997 8.53348,-2.42247 8.6909,-2.25 0.74502,0.81627 7.17914,9.45023 7.80484,10.47334 1.67443,2.73793 -0.43565,4.34024 -5.71565,4.34024 -3.85824,0 -5.77152,0.52831 -7.39674,2.04244 -2.0294,1.89067 -2.08407,2.25173 -0.73572,4.85915 3.04988,5.89783 13.57581,7.36484 18.56269,2.58711 l 2.88537,-2.76436 2.80141,3.32923 c 6.59955,7.84296 12.38204,16.28401 12.10272,17.66707 -0.16643,0.82409 -4.18281,3.04383 -8.97238,4.95879 -4.76909,1.90677 -8.92482,4.12811 -9.23496,4.93631 -0.36719,0.95689 0.67974,2.20322 3.0014,3.57303 3.72566,2.19819 5.82461,5.91266 4.93139,8.72695 -0.88101,2.77581 -5.99549,5.08428 -11.26437,5.08428 -2.71098,0 -5.22905,-0.3 -5.59571,-0.66666 z"
         id="path18835"
         inkscape:connector-curvature="0" />
    </g>
    <text
       xml:space="preserve"
       style="font-size:40.63151169px;font-style:normal;font-weight:normal;fill:#4e5959;fill-opacity:1;stroke:none;font-family:Bitstream Vera Sans"
       x="-504.58783"
       y="18.745047"
       id="text2839"
       inkscape:export-filename="/home/apel/Desktop/SPLGroup.png"
       inkscape:export-xdpi="90"
       inkscape:export-ydpi="90"
       transform="scale(0.99632793,1.0036856)"><tspan
         sodipodi:role="line"
         id="tspan2841"
         x="-504.58783"
         y="18.745047"
         style="font-size:70.96064758px;font-style:normal;font-variant:normal;font-weight:normal;font-stretch:normal;fill:#475252;fill-opacity:1;font-family:Dingbats;-inkscape-font-specification:Dingbats">Software </tspan><tspan
         sodipodi:role="line"
         x="-504.58783"
         y="107.44585"
         style="font-size:70.96064758px;font-style:normal;font-variant:normal;font-weight:normal;font-stretch:normal;fill:#475252;fill-opacity:1;font-family:Dingbats;-inkscape-font-specification:Dingbats"
         id="tspan2853">Product-Line</tspan><tspan
         sodipodi:role="line"
         x="-504.58783"
         y="196.14667"
         id="tspan2843"
         style="font-size:70.96064758px;font-style:normal;font-variant:normal;font-weight:normal;font-stretch:normal;fill:#475252;fill-opacity:1;font-family:Dingbats;-inkscape-font-specification:Dingbats">Group</tspan></text>
  </g>
</svg>
