<?xml version="1.0" encoding="UTF-8" standalone="no"?>
<svg
   xmlns:dc="http://purl.org/dc/elements/1.1/"
   xmlns:cc="http://creativecommons.org/ns#"
   xmlns:rdf="http://www.w3.org/1999/02/22-rdf-syntax-ns#"
   xmlns:svg="http://www.w3.org/2000/svg"
   xmlns="http://www.w3.org/2000/svg"
   xmlns:sodipodi="http://sodipodi.sourceforge.net/DTD/sodipodi-0.dtd"
   xmlns:inkscape="http://www.inkscape.org/namespaces/inkscape"
   version="1.0"
   width="6803.000000pt"
   height="1805.000000pt"
   viewBox="0 0 6803.000000 1805.000000"
   preserveAspectRatio="xMidYMid meet"
   id="svg2"
   inkscape:version="0.48.3.1 r9886"
   sodipodi:docname="uni_1200dpi_fb_gross.svg">
  <defs
     id="defs60" />
  <sodipodi:namedview
     pagecolor="#ffffff"
     bordercolor="#666666"
     borderopacity="1"
     objecttolerance="10"
     gridtolerance="10"
     guidetolerance="10"
     inkscape:pageopacity="0"
     inkscape:pageshadow="2"
     inkscape:window-width="1366"
     inkscape:window-height="744"
     id="namedview58"
     showgrid="false"
     inkscape:zoom="0.051977069"
     inkscape:cx="3414.0462"
     inkscape:cy="3148.7816"
     inkscape:window-x="1280"
     inkscape:window-y="0"
     inkscape:window-maximized="1"
     inkscape:current-layer="svg2" />
  <metadata
     id="metadata4">
Created by potrace 1.10, written by Peter Selinger 2001-2011
<rdf:RDF>
  <cc:Work
     rdf:about="">
    <dc:format>image/svg+xml</dc:format>
    <dc:type
       rdf:resource="http://purl.org/dc/dcmitype/StillImage" />
  </cc:Work>
</rdf:RDF>
</metadata>
  <path
     style="fill:#7b8385;stroke:none;fill-opacity:1"
     inkscape:connector-curvature="0"
     id="path8"
     d="m 2291,120 c -179,65.4 -327.4,119.7 -329.7,120.6 l -4.3,1.6 0,147.4 0,147.4 -32,0 -32,0 0,-146.4 0,-146.5 -5.2,-1.9 C 1882.6,240.2 1239,6 1231.8,3.4 l -3.8,-1.3 0,394.2 0,394.3 32.3,-2.8 c 17.7,-1.5 32.8,-2.7 33.5,-2.7 0.9,-0.1 1.2,-69.4 1.2,-343.2 0,-274.1 0.3,-343 1.3,-342.7 0.6,0.3 119.9,43.6 264.9,96.4 l 263.8,95.9 0,219.7 0,219.8 99.5,0 99.5,0 0.2,-220.7 0.3,-220.6 261,-95.3 c 143.6,-52.5 261.8,-95.6 262.8,-96 1.6,-0.5 1.7,35.3 1.7,743.3 l 0,743.8 33.5,33.5 33.5,33.5 0,-825.8 C 2617,372.6 2616.9,1 2616.8,1.1 2616.6,1.1 2470,54.6 2291,120 z" />
  <path
     style="fill:#7b8385;stroke:none;fill-opacity:1"
     inkscape:connector-curvature="0"
     id="path10"
     d="m 6133.3,393.8 c -2.9,1 -7.1,3.2 -9.4,4.8 -5.5,3.7 -12.3,13 -14.4,19.5 -3.9,11.5 0.5,27 10.1,35.9 13.9,12.8 32.7,13 46.3,0.4 3.8,-3.5 7.1,-7.7 8.8,-11.2 2.4,-5 2.7,-6.9 2.8,-15.2 0,-8.4 -0.3,-10.1 -2.8,-15.2 -7.9,-16 -26.3,-24.4 -41.4,-19 z" />
  <path
     style="fill:#7b8385;stroke:none;fill-opacity:1"
     inkscape:connector-curvature="0"
     id="path12"
     d="m 6271.8,393.3 c -10,3.8 -18.5,11.3 -23,20.5 -3.3,6.9 -3.7,18.7 -0.8,26.5 2.9,7.6 11.2,16.7 18.8,20.4 4.8,2.3 7,2.8 13.7,2.8 7.1,0 8.8,-0.4 14.7,-3.3 13.1,-6.4 20.1,-17.8 20.2,-32.7 0.1,-9.7 -2.8,-16.8 -9.8,-24.3 -8.3,-8.9 -24.1,-13.5 -33.8,-9.9 z" />
  <path
     style="fill:#7b8385;stroke:none;fill-opacity:1"
     inkscape:connector-curvature="0"
     id="path14"
     d="m 5262.3,526.1 c -49.2,4.7 -91.4,31 -110.2,68.6 -7.1,14.3 -9.3,23.4 -9.9,41.5 -1.2,41.7 12.3,71.2 46.8,102.1 11.9,10.7 36.7,29.8 55,42.5 37,25.5 60.1,45.2 73.1,62.6 7.2,9.4 15.2,25.5 17.6,35.1 2.5,10.1 2.2,29.4 -0.6,40 -5.5,21.1 -18,36.9 -36.2,45.9 -15.5,7.6 -22.1,9 -44.4,9 -17.3,0 -19.9,-0.2 -29.6,-2.6 -22.6,-5.7 -41.4,-15.4 -72.8,-37.6 -1.6,-1.1 -3.1,0.6 -15.4,17.2 -18.5,25.1 -17.2,21.8 -10.7,27.7 21.9,19.8 55.5,34.9 93.5,42.1 10.3,1.9 15.4,2.3 35.5,2.3 26.4,0 36.5,-1.4 56.6,-8 35.2,-11.5 65.1,-35.2 80.2,-63.5 16.6,-31 17.7,-69.9 3.1,-105.7 -8,-19.9 -19.5,-35.9 -41.4,-57.9 -18.2,-18.2 -29.7,-27.8 -60.5,-50.4 -28.2,-20.7 -42,-31.9 -55.1,-45 -24.1,-23.8 -31.3,-42.2 -26.3,-66.8 3.7,-18.5 15.8,-34 32.5,-42 20.2,-9.7 42.3,-11.3 65.6,-4.6 11.7,3.3 32.1,13.4 46.1,22.8 l 11.3,7.5 6.3,-6.7 c 11.7,-12.5 25.1,-27.3 25.4,-28.1 0.5,-1.4 -16.2,-16.7 -23.9,-21.8 -30.2,-20.4 -71.6,-30.1 -111.6,-26.2 z" />
  <path
     style="fill:#7b8385;stroke:none;fill-opacity:1"
     inkscape:connector-curvature="0"
     id="path16"
     d="m 3988.5,532.4 c -15.4,2.9 -29.7,5.6 -31.8,6 -3.4,0.6 -3.8,1 -3.3,2.9 0.3,1.2 40.1,108.2 88.5,237.7 l 88,235.5 22.8,0.3 22.9,0.2 95.6,-239.7 c 91,-228.2 95.5,-239.8 93.5,-240.5 -5.3,-1.6 -57.8,-8.1 -58.6,-7.2 -0.8,0.9 -11.5,29.7 -45.6,122.4 -35.8,97.4 -57.8,159.9 -83.7,237.2 -9,26.9 -16.6,48.8 -16.9,48.8 -0.3,0 -1.1,-1.9 -1.8,-4.3 -10.8,-36.9 -64.2,-198.5 -92.9,-280.7 -43.5,-124.8 -43.2,-124 -46.1,-123.9 -1.4,0 -15.2,2.4 -30.6,5.3 z" />
  <path
     style="fill:#7b8385;stroke:none;fill-opacity:1"
     inkscape:connector-curvature="0"
     id="path18"
     d="m 2818.3,698.2 0.3,164.3 2.2,14 c 7.4,45.7 20.8,75.2 45.1,99.6 20.2,20.1 42.9,32.3 74.4,39.9 23.2,5.6 32.4,6.5 64.7,6.5 26,0 30.9,-0.3 41.5,-2.2 40.2,-7.3 71,-23.2 96,-49.5 26.2,-27.5 42.4,-66 46.4,-109.8 0.7,-7.4 1.1,-67.1 1.1,-169.3 l 0,-157.7 -31.5,0 -31.4,0 -0.4,161.2 c -0.3,173.4 -0.2,167.5 -5.3,188.3 -9.5,38.3 -29.1,65.8 -56.9,79.8 -17.6,8.9 -29.3,11.7 -51.7,12.4 -27.1,0.9 -46.9,-2.6 -65.4,-11.7 -37.4,-18.2 -57,-55.1 -61.4,-115.5 -0.6,-8.6 -1,-71.8 -1,-164.3 l 0,-150.2 -33.5,0 -33.6,0 0.4,164.2 z" />
  <path
     style="fill:#7b8385;stroke:none;fill-opacity:1"
     inkscape:connector-curvature="0"
     id="path20"
     d="m 3297,774.5 0,240.5 28,0 28,0 0.2,-191 0.3,-191.1 8,10.8 c 28.6,38.5 119.6,150 269.2,330 l 34.3,41.3 26.5,0 26.5,0 0,-240.5 0,-240.5 -28,0 -28,0 0,191.1 0,191.1 -11.8,-15.8 C 3618.8,858.1 3524.7,743.7 3389.3,583 l -40.8,-48.5 -25.8,-0.3 -25.7,-0.2 0,240.5 z" />
  <path
     style="fill:#7b8385;stroke:none;fill-opacity:1"
     inkscape:connector-curvature="0"
     id="path22"
     d="m 3832,774.5 0,240.5 34,0 34,0 0,-240.5 0,-240.5 -34,0 -34,0 0,240.5 z" />
  <path
     style="fill:#7b8385;stroke:none;fill-opacity:1"
     inkscape:connector-curvature="0"
     id="path24"
     d="m 4420,774.5 0,240.5 133,0 133,0 0,-24.5 0,-24.5 -99.5,0 -99.5,0 0,-90 0,-90 83.5,0 83.5,0 0,-24.5 0,-24.5 -83.5,0 -83.5,0 0,-77 0,-77 85,0 85,0 0,-24.5 0,-24.5 -118.5,0 -118.5,0 0,240.5 z" />
  <path
     style="fill:#7b8385;stroke:none;fill-opacity:1"
     inkscape:connector-curvature="0"
     id="path26"
     d="m 4760,774.5 0,240.5 33.5,0 33.5,0 0,-99.5 0,-99.5 35.1,0.2 35.1,0.3 55.1,103.2 c 30.4,56.8 55.8,103.2 56.5,103.3 1.3,0 66.4,-19.9 67,-20.5 0.2,-0.2 -26.2,-46 -58.7,-101.8 -32.5,-55.8 -59.1,-101.9 -59.1,-102.4 0,-0.5 3.3,-3.2 7.2,-5.9 C 5013,760 5037,715 5037,658.3 c 0,-57.8 -29,-99 -81.9,-116.3 -5,-1.6 -13.9,-3.9 -19.8,-5.2 -10.6,-2.2 -12,-2.3 -93,-2.6 l -82.3,-0.3 0,240.6 z m 145.5,-189.6 c 23.2,4.8 39.8,16.5 49.4,35 7.9,15.2 11.2,35.2 9.2,55.9 -3.9,40.4 -19.8,66.4 -49.6,80.8 -16.8,8.1 -30.8,10.4 -64.7,10.4 l -22.8,0 0,-92 0,-92 34.8,0 c 30,0 35.9,0.3 43.7,1.9 z" />
  <path
     style="fill:#7b8385;stroke:none;fill-opacity:1"
     inkscape:connector-curvature="0"
     id="path28"
     d="m 5497,774.5 0,240.5 33.5,0 33.5,0 0,-240.5 0,-240.5 -33.5,0 -33.5,0 0,240.5 z" />
  <path
     style="fill:#7b8385;stroke:none;fill-opacity:1"
     inkscape:connector-curvature="0"
     id="path30"
     d="m 5624,558.5 0,24.5 77,0 77,0 0,216 0,216 33.5,0 33.5,0 0,-216 0,-216 77,0 77,0 0,-24.5 0,-24.5 -187.5,0 -187.5,0 0,24.5 z" />
  <path
     style="fill:#7b8385;stroke:none;fill-opacity:1"
     inkscape:connector-curvature="0"
     id="path32"
     d="m 6193.1,536.2 c -0.5,1.3 -44.4,109.3 -97.5,240.1 -53.1,130.8 -96.6,238 -96.6,238.3 0,0.2 14.7,0.4 32.8,0.4 l 32.7,0 25.5,-70.5 25.5,-70.5 91.1,0 91.1,0 16.3,46.7 c 9,25.8 20,57.4 24.6,70.3 l 8.2,23.5 39.1,0.3 39.1,0.2 -2.5,-6.7 c -1.4,-3.8 -41.6,-111.9 -89.4,-240.3 l -86.9,-233.5 -26.1,-0.3 -26.1,-0.2 -0.9,2.2 z m 22.3,86.8 c 14.2,49.9 32.1,105.5 52.7,163.9 7.1,20.1 12.9,36.8 12.9,37.3 0,0.4 -32.8,0.8 -73,0.8 -40.1,0 -73,-0.3 -73,-0.6 0,-0.3 5.1,-13.9 11.4,-30.2 23.4,-61 44,-120.6 57.6,-167 3.5,-11.7 6.4,-21.1 6.5,-21 0.2,0.2 2.4,7.7 4.9,16.8 z" />
  <path
     style="fill:#7b8385;stroke:none;fill-opacity:1"
     inkscape:connector-curvature="0"
     id="path34"
     d="m 6424,558.5 0,24.5 77,0 77,0 0,216 0,216 33.5,0 33.5,0 0,-216 0,-216 77,0 77,0 0,-24.5 0,-24.5 -187.5,0 -187.5,0 0,24.5 z" />
  <path
     style="fill:#e58900;stroke:none;fill-opacity:1"
     inkscape:connector-curvature="0"
     id="path36"
     d="m 1720.5,866.7 c -486.9,7 -973.2,75.5 -1326.5,186.8 -143.9,45.4 -263.3,97.9 -343,150.8 -19.9,13.3 -50.7,36.3 -49.7,37.3 0.2,0.2 85.3,0.8 189.3,1.5 l 188.9,1.1 20.8,-13.1 c 160.6,-101.1 317.6,-172.6 493.2,-224.7 230.1,-68.2 501,-106.3 835,-117.4 29.6,-1 112.2,-2.9 127,-3 5,-0.1 6.5,-0.3 5.3,-1 -0.9,-0.6 -12.3,-5.1 -25.3,-10 l -23.7,-9 -37.6,0.2 c -20.8,0.1 -44.9,0.3 -53.7,0.5 z" />
  <path
     style="fill:#e58900;stroke:none;fill-opacity:1"
     inkscape:connector-curvature="0"
     id="path38"
     d="m 1931.5,927.1 c -333.8,7.4 -639.9,53.8 -884.5,134.1 -231,75.8 -404.2,181.6 -506.2,309.1 -4.3,5.4 -7.8,10 -7.8,10.3 0,0.2 85.2,0.4 189.3,0.4 l 189.4,0 7.4,-10.7 c 82.4,-120.1 198.1,-213.6 344.9,-278.8 177.6,-78.9 401.5,-123.1 744.3,-147.1 5.4,-0.3 9.5,-1 9,-1.4 -1.9,-1.8 -45.8,-17 -48.7,-16.8 -1.7,0.1 -18.4,0.5 -37.1,0.9 z" />
  <path
     style="fill:#e58900;stroke:none;fill-opacity:1"
     inkscape:connector-curvature="0"
     id="path40"
     d="m 2108,985.1 c -42.6,4.2 -70.7,7.3 -107.6,11.9 -335.8,42.1 -588,130.4 -742.8,259.9 -70.3,58.8 -123.1,128.5 -153,202.2 -8.9,22 -19.6,53.4 -19.6,57.8 0,0.8 47.8,1.1 190,1.1 l 190,0 0.4,-2.3 c 0.3,-1.2 1.9,-9.2 3.6,-17.7 14.3,-71.3 40.9,-137 78.7,-194.8 35.1,-53.5 85,-104.2 141.1,-143.5 67.8,-47.5 151.1,-85.5 247.6,-113.2 65.9,-18.8 143.2,-34.3 218.9,-43.6 9.7,-1.3 17.4,-2.6 17,-3 -0.7,-0.7 -45.1,-17 -45.6,-16.8 -0.1,0.1 -8.5,1 -18.7,2 z" />
  <path
     style="fill:#e58900;stroke:none;fill-opacity:1"
     inkscape:connector-curvature="0"
     id="path42"
     d="m 2258,1040.5 c -88.5,10.3 -166.5,28.9 -237.7,56.3 -126.5,48.9 -226,125 -289.8,221.7 -14.6,22.2 -21.7,34.6 -33.6,59 -31.6,65.1 -47.4,130 -51.1,209 -1.1,24.2 -0.2,64.4 1.5,66.1 0.7,0.8 355.6,3.8 356.4,3.1 0.2,-0.3 -1.9,-7.6 -4.7,-16.4 -19.4,-59.9 -32.2,-118.1 -38.5,-175.3 -2.2,-19.8 -3.1,-70.5 -1.6,-89.6 5.6,-69.9 25.4,-125.8 61.9,-174.4 10.3,-13.8 38.7,-42.6 52.2,-53 59.8,-45.9 137.1,-75 236.4,-89 8.3,-1.1 15.2,-2.3 15.4,-2.5 0.6,-0.5 0.3,-0.6 -25.7,-10.1 -11.2,-4.1 -20.6,-7.4 -21,-7.3 -0.3,0 -9.4,1.1 -20.1,2.4 z" />
  <path
     style="fill:#e58900;stroke:none;fill-opacity:1"
     inkscape:connector-curvature="0"
     id="path44"
     d="m 2419.5,1097.1 c -133.1,21.2 -221.4,67.4 -271,141.9 -22.4,33.5 -35.9,71.3 -42.2,118 -2.5,18.9 -2.5,72.7 0,94.5 11,94.1 45.1,197 104.9,317 l 13.2,26.5 185,0 185.1,0 -6,-5.7 C 2452.4,1660.6 2358.2,1545 2306,1442.5 c -47.6,-93.5 -55.6,-168.8 -23.8,-224.7 28.1,-49.5 86.7,-83.2 176.3,-101.3 17.4,-3.5 20.6,-4.5 18.5,-5.3 -6,-2.3 -44.8,-16.2 -45.1,-16.1 -0.2,0.1 -5.8,1 -12.4,2 z" />
  <path
     style="fill:#7b8385;stroke:none;fill-opacity:1"
     inkscape:connector-curvature="0"
     id="path46"
     d="m 3681,1164.7 c -51.4,6.6 -93.9,36.3 -109.9,76.5 -4.8,12.2 -6.4,21.5 -6.4,37.8 0,16.5 1.7,27.2 6.4,40.8 11.6,33 34.5,56.5 98.9,101.6 41,28.7 60.6,46.1 73.2,65.1 11.8,17.8 15.8,30.1 15.9,48.1 0,24.7 -6.9,42.4 -22.3,56.9 -24.4,23 -68,27.6 -109.1,11.5 -12.5,-4.9 -26.3,-12.6 -42.4,-23.6 -6.8,-4.6 -12.6,-8.4 -13,-8.4 -0.5,0 -7.5,9.1 -15.7,20.2 l -14.9,20.2 3.9,3.4 c 43.2,37.6 110.8,54.9 168.5,43.2 14.1,-2.9 26.8,-7.2 40.4,-13.9 48.2,-23.6 74.9,-66.3 72.2,-115.5 -1.9,-34.5 -14,-61.8 -41.1,-92.7 -15.1,-17.2 -35.8,-34.9 -72.6,-61.9 -53.7,-39.4 -73.6,-60.3 -79.5,-83.5 -3.3,-13 -1,-31.2 5.6,-43.5 16,-30 57.5,-42.1 97.8,-28.4 10.3,3.5 29.3,13.4 41.9,21.8 5.7,3.8 10.7,6.5 11.1,6 0.4,-0.5 6.3,-7 13.1,-14.4 6.8,-7.4 13.8,-15 15.4,-16.8 l 3.1,-3.4 -8.5,-8 c -19.5,-18.4 -44.8,-30.9 -74.6,-36.9 -8.8,-1.7 -15,-2.2 -32.4,-2.4 -11.8,-0.2 -23.1,-0.1 -25,0.2 z" />
  <path
     style="fill:#7b8385;stroke:none;fill-opacity:1"
     inkscape:connector-curvature="0"
     id="path48"
     d="m 4037,1164.7 c -50,6.5 -92.4,35.3 -108.7,73.7 -10.2,24.1 -10.6,54.4 -1.2,81.2 11.6,33.2 34.4,56.6 98.9,101.8 40.9,28.6 60.6,46.1 73.2,65.1 11.8,17.7 16,30.6 15.9,49 0,24.1 -7,41.6 -22.3,56 -24.4,23 -68,27.6 -109.1,11.5 -12.5,-4.9 -26.3,-12.6 -42.4,-23.6 -6.8,-4.6 -12.6,-8.4 -13,-8.4 -0.9,0.1 -29.8,39 -29.8,40.2 0,1.3 12.9,11.9 21,17.3 34.9,23.2 86.4,36.3 128.4,32.6 24,-2.1 42.5,-7.2 62.6,-17 48.3,-23.7 74.9,-66.2 72.2,-115.5 -1.9,-34.5 -14,-61.8 -41.1,-92.7 -14.8,-16.9 -35.2,-34.4 -68.6,-58.9 -66.8,-48.9 -85,-70.6 -85,-100.5 0.1,-29.3 18,-51.9 48.1,-60.5 9.6,-2.8 29.9,-3.8 39.5,-2 17,3.1 39,12.9 59.2,26.4 8.7,5.8 10.5,6.7 11.6,5.5 0.7,-0.8 6.6,-7.3 13.1,-14.4 6.5,-7.2 13.3,-14.5 14.9,-16.3 l 3.1,-3.4 -8.5,-8 c -19.6,-18.4 -44.7,-30.8 -74.6,-36.9 -8.8,-1.7 -15,-2.2 -32.4,-2.4 -11.8,-0.2 -23.1,-0.1 -25,0.2 z" />
  <path
     style="fill:#7b8385;stroke:none;fill-opacity:1"
     inkscape:connector-curvature="0"
     id="path50"
     d="m 2825,1412.4 0,240.6 33.5,0 33.5,0 0,-216 0,-216 28.3,0 c 39.2,0 54.3,2.3 72.3,11 29.8,14.3 44.6,41.1 44.7,80.5 0,24 -4.6,43.6 -14,60.5 -6,10.7 -19.6,24.6 -29.8,30.6 -19.5,11.4 -45.2,17.3 -75.7,17.4 l -6.8,0 0,22.6 0,22.7 22.8,-0.6 c 24.5,-0.6 36.1,-2 53.7,-6.6 47.8,-12.5 86.9,-43.1 106.9,-83.6 6.3,-12.7 9.7,-22.6 12.8,-36.9 2.8,-13 3.1,-41.9 0.5,-56.6 -9.5,-55.3 -44,-90.2 -102.4,-103.9 -22.8,-5.3 -24.6,-5.4 -105,-5.8 l -75.3,-0.4 0,240.5 z" />
  <path
     style="fill:#7b8385;stroke:none;fill-opacity:1"
     inkscape:connector-curvature="0"
     id="path52"
     d="m 3182.7,1409.8 c -53.1,130.8 -97.1,239.1 -97.6,240.5 l -1.1,2.7 32.9,0 32.8,0 25.5,-70.2 25.5,-70.3 91.1,-0.3 91,-0.2 1.1,3.2 c 23.4,67.7 47.6,136.5 48.1,137.1 0.3,0.4 18,0.6 39.2,0.5 l 38.6,-0.3 -89.2,-240 -89.3,-240 -26,-0.3 -26,-0.2 -96.6,237.8 z M 3302.8,1269 c 14.5,50.3 32.7,106.6 53.1,163.9 5.6,15.6 10.1,28.8 10.1,29.2 0,0.5 -32.9,0.9 -73.1,0.9 -69.2,0 -73.1,-0.1 -72.4,-1.8 29,-73.3 59.6,-161.3 72.6,-209 1.2,-4.5 2.3,-8.1 2.4,-8 0.2,0.2 3.5,11.3 7.3,24.8 z" />
  <path
     style="fill:#7b8385;stroke:none;fill-opacity:1"
     inkscape:connector-curvature="0"
     id="path54"
     d="m 4312.9,1412.3 -97.5,240.2 32.4,0.3 c 17.9,0.1 32.7,0 33,-0.2 0.4,-0.4 51.2,-139.6 51.2,-140.3 0,-0.2 41,-0.2 91.1,-0.1 l 91.1,0.3 24.4,70 c 13.4,38.5 24.4,70.1 24.4,70.2 0,0.2 17.6,0.3 39.1,0.3 25.6,0 39,-0.3 38.7,-1 -0.1,-0.5 -40.3,-108.8 -89.3,-240.5 l -89,-239.5 -26,0 -26,0 -97.6,240.3 z m 117.6,-155.8 c 13.5,49.2 37.9,124.3 63.4,195.2 l 4,11.3 -73.4,0 -73.4,0 2.4,-6.3 c 1.3,-3.4 6.9,-18.1 12.5,-32.7 21.6,-56.4 39.8,-109.2 53.6,-155.7 3.8,-12.8 7.2,-22.9 7.5,-22.5 0.3,0.4 1.8,5.2 3.4,10.7 z" />
  <path
     style="fill:#7b8385;stroke:none;fill-opacity:1"
     inkscape:connector-curvature="0"
     id="path56"
     d="m 4688.3,1335.2 c 0.3,148.9 0.5,164.3 2,174.8 4.5,29.3 10.4,49.4 20.3,69 16.3,32 40.9,54.1 75.8,68 34.2,13.6 90.1,18.5 130.6,11.5 71.2,-12.3 120.1,-57.9 137,-127.8 6.1,-25 6,-22.6 6,-198.4 l 0,-160.3 -31.5,0 -31.5,0 0,155.7 c 0,99.2 -0.4,159.7 -1,166.7 -6.4,66.9 -39.4,108.4 -94.1,118.2 -12.5,2.3 -37.8,2.3 -51.4,0 -46.6,-7.8 -75.7,-35.7 -87.9,-84.3 -3.6,-14.5 -5.5,-28.3 -6.6,-47.6 -0.5,-9.4 -1,-82.8 -1,-163 l 0,-145.7 -33.5,0 -33.6,0 0.4,163.2 z" />
</svg>
